# xmcd
#
# Track frame offsets: 
#        150
#        21632
#        37692
#        62597
#        82607
#        99647
#        125175
#        141012
#        155955
#        183447
#        204552
#        220397
#        242807
#
# Disc length: 3422 seconds
#
# Revision: 0
# Processed by: cddbd v1.5.2PL0 Copyright (c) Steve Scherf et al.
# Submitted via: ExactAudioCopy v1.1
#
DISCID=ba0d5c0d
DTITLE=Too Slim And The Taildraggers - Rock Em Dead
DYEAR=1990
DGENRE=Blues, Blues-Rock, Modern Electric Blues
TTITLE0=Don't Take My Woman
TTITLE1=Miss Peggy
TTITLE2=Face Up
TTITLE3=No Quarter
TTITLE4=You Upsets Me
TTITLE5=Double Trouble
TTITLE6=The Stumble
TTITLE7=Won't Let Go
TTITLE8=Big River
TTITLE9=Ol Man Cole
TTITLE10=Rock Em Dead
TTITLE11=Eyes On The Prize
TTITLE12=Rumble
EXTD=
EXTT0=
EXTT1=
EXTT2=
EXTT3=
EXTT4=
EXTT5=
EXTT6=
EXTT7=
EXTT8=
EXTT9=
EXTT10=
EXTT11=
EXTT12=
PLAYORDER=
